<svg xmlns="http://www.w3.org/2000/svg" viewBox="0 0 100 100" fill="none">
  <!-- Kitap -->
  <path d="M20 75 L50 65 L80 75 L80 85 L50 75 L20 85 Z" fill="#FFED00"/>
  <path d="M20 75 L50 65 L50 75 L20 85 Z" fill="#E6D400"/>
  
  <!-- Sol sayfa -->
  <path d="M22 45 L48 38 L48 65 L22 72 Z" fill="#FFFFFF"/>
  <path d="M26 50 L44 45" stroke="#FFED00" stroke-width="2"/>
  <path d="M26 55 L44 50" stroke="#FFED00" stroke-width="2"/>
  <path d="M26 60 L40 56" stroke="#FFED00" stroke-width="2"/>
  
  <!-- Sağ sayfa -->
  <path d="M52 38 L78 45 L78 72 L52 65 Z" fill="#FFFFFF"/>
  <path d="M56 45 L74 50" stroke="#FFED00" stroke-width="2"/>
  <path d="M56 50 L74 55" stroke="#FFED00" stroke-width="2"/>
  <path d="M56 55 L70 59" stroke="#FFED00" stroke-width="2"/>
  
  <!-- Kanarya kuşu -->
  <ellipse cx="50" cy="25" rx="12" ry="10" fill="#FFED00"/>
  <ellipse cx="50" cy="38" rx="15" ry="12" fill="#FFED00"/>
  <circle cx="45" cy="23" r="2" fill="#1a1a2e"/>
  <path d="M54 22 L62 20 L54 25 Z" fill="#FF6B00"/>
  <path d="M38 35 L28 40 L30 42 L40 38 Z" fill="#FFED00"/>
  <path d="M62 35 L72 40 L70 42 L60 38 Z" fill="#FFED00"/>
  <path d="M45 50 L50 58 L55 50" fill="#FFED00"/>
</svg>
