<svg xmlns="http://www.w3.org/2000/svg" viewBox="0 0 100 100" fill="none">
  <!-- Kanarya kuşu -->
  <ellipse cx="50" cy="35" rx="14" ry="12" fill="#FFED00"/>
  <ellipse cx="50" cy="52" rx="18" ry="15" fill="#FFED00"/>
  <circle cx="44" cy="32" r="2.5" fill="#1a1a2e"/>
  <path d="M56 30 L68 26 L56 35 Z" fill="#FF6B00"/>
  <path d="M35 48 L22 54 L24 57 L38 52 Z" fill="#FFED00"/>
  <path d="M65 48 L78 54 L76 57 L62 52 Z" fill="#FFED00"/>
  <path d="M44 67 L50 78 L56 67" fill="#FFED00"/>
  
  <!-- Konuşma balonu -->
  <path d="M68 15 C68 8, 82 8, 82 15 C82 22, 75 22, 72 22 L70 28 L68 22 C65 22, 68 22, 68 15 Z" fill="#FFFFFF" stroke="#FFED00" stroke-width="2"/>
  <circle cx="72" cy="15" r="1.5" fill="#FFED00"/>
  <circle cx="76" cy="15" r="1.5" fill="#FFED00"/>
  <circle cx="80" cy="15" r="1.5" fill="#FFED00"/>
</svg>
